<?xml version="1.0" encoding="UTF-8"?>
<svg id="Layer_1" xmlns="http://www.w3.org/2000/svg" version="1.1" viewBox="0 0 512 512">
  <!-- Generator: Adobe Illustrator 29.8.3, SVG Export Plug-In . SVG Version: 2.1.1 Build 3)  -->
  <defs>
    <style>
      .st0 {
        fill: #eff1f5;
        fill-rule: evenodd;
      }
    </style>
  </defs>
  <path class="st0" d="M32.6,370.7c-17.5-34.4-27.5-73.3-27.5-114.7s10-80.3,27.5-114.7C74.7,57.5,161,0,261.1,0s126.8,25.4,171.3,66.8l-73.3,73.3c-26.8-25.1-60.3-38.2-98-38.2-66.6,0-123.1,44.9-143.4,105.4-5.1,15.4-8.1,31.6-8.1,48.6s3,33.3,8.1,48.6l-.3.2h.3c20.2,60.5,76.8,105.4,143.4,105.4s63.5-9.3,86.3-24.7c27.2-18.2,45.4-45.1,51.4-77h-137.8v-99.1h241.1c3,16.8,4.7,34.2,4.7,52.4,0,78-27.9,143.6-76.3,188.3-42.4,39.1-100.3,61.9-169.4,61.9-100.1,0-186.4-57.5-228.5-141v-.2h0Z"/>
</svg>