<?xml version="1.0" encoding="UTF-8"?>
<svg id="Layer_1" xmlns="http://www.w3.org/2000/svg" version="1.1" viewBox="0 0 20 20">
  <!-- Generator: Adobe Illustrator 29.8.3, SVG Export Plug-In . SVG Version: 2.1.1 Build 3)  -->
  <defs>
    <style>
      .st0 {
        fill: #eff1f5;
      }

      .st0, .st1 {
        fill-rule: evenodd;
      }

      .st1 {
        fill: #fdebf3;
      }
    </style>
  </defs>
  <path id="path2" class="st1" d="M19,4v12H1V4h18ZM18,5H2v10h16V5Z"/>
  <path id="path3" class="st0" d="M1.1,4.1h17.8v11.8H1.1V4.1ZM18,11.2c0-3.5,0-3.8-.1-3.7-.1,0-1.9.9-4,2s-3.9,2-3.9,2c0,0-1.8-.9-3.9-2s-3.9-2-4-2c-.1,0-.1.2-.1,3.7v3.9h16v-3.9ZM15.5,7.6l2.5-1.3v-1.3H2v1.3l4,2.1,4,2.1,1.5-.8c.8-.4,2.6-1.4,4-2.1Z"/>
</svg>